<svg xmlns="http://www.w3.org/2000/svg" xmlns:xlink="http://www.w3.org/1999/xlink" viewBox="0 0 595.71 595.28"><defs><style>.cls-1{isolation:isolate;}.cls-2{fill:#1e1e1c;}.cls-3{fill:url(#linear-gradient);}.cls-4{fill:url(#linear-gradient-2);}.cls-5{mix-blend-mode:overlay;}.cls-6,.cls-7,.cls-9{fill:none;}.cls-7,.cls-8{stroke:#fff;stroke-width:1.82px;}.cls-7,.cls-8,.cls-9{stroke-miterlimit:10;}.cls-10,.cls-8{fill:#fff;}.cls-9{stroke:#1e1e1c;stroke-width:0.44px;}.cls-11{fill:url(#linear-gradient-3);}</style><linearGradient id="linear-gradient" x1="225.7" y1="262.85" x2="451.19" y2="262.85" gradientUnits="userSpaceOnUse"><stop offset="0" stop-color="#2d2c70"/><stop offset="1" stop-color="#9f8ac0"/></linearGradient><linearGradient id="linear-gradient-2" x1="106.77" y1="206.03" x2="218.55" y2="206.03" xlink:href="#linear-gradient"/><linearGradient id="linear-gradient-3" x1="379.59" y1="303.64" x2="490.5" y2="303.64" xlink:href="#linear-gradient"/></defs><g class="cls-1"><g id="Layer_1" data-name="Layer 1"><path class="cls-2" d="M251.9,536l28.42-31.24H290.4l-19.09,21.41,21.62,39.61H282.85l-17.76-34-13.19,15v19h-9.37V483.16h9.37Z"/><path class="cls-2" d="M343.1,541.29l9.15,1.58a26.09,26.09,0,0,1-6.86,10.85,25.57,25.57,0,0,1-8.91,5.39,37.54,37.54,0,0,1-4.69,1.29c-.74.12-1.44.21-2.08.29a16.89,16.89,0,0,1-2.08.12q-10.14,0-16.79-4.66a27.87,27.87,0,0,1-9.82-12,41.36,41.36,0,0,1-3.16-15.59l.17-.47.06-.23a32,32,0,0,1,.82-7.62,40.88,40.88,0,0,1,2.64-7.27,28.6,28.6,0,0,1,9.2-11.25,23.26,23.26,0,0,1,13.89-4.45q9.25,0,15.68,4A24.73,24.73,0,0,1,350,512.72,43.13,43.13,0,0,1,353.18,530H308.87l-.11,2.52a22.12,22.12,0,0,0,2.52,10.84,18.7,18.7,0,0,0,6.88,7.18,17,17,0,0,0,8.77,2.61,16,16,0,0,0,5-.76,19.78,19.78,0,0,0,2.43-1,17.91,17.91,0,0,0,2.37-1.44A16.94,16.94,0,0,0,343.1,541.29ZM342.87,523a20.51,20.51,0,0,0-2.32-10,16.33,16.33,0,0,0-6.12-6.44,15.63,15.63,0,0,0-8-2.23h-.24a13.06,13.06,0,0,0-3.89.56,19,19,0,0,0-3.9,1.78,17.43,17.43,0,0,0-6.13,6.25A24.43,24.43,0,0,0,309.11,523Z"/><rect class="cls-2" x="302.69" y="485.42" width="45.66" height="6.56"/><circle class="cls-2" cx="325.52" cy="573.73" r="6"/><path class="cls-3" d="M226,434.35,440.79,166.56a46.06,46.06,0,0,0-6.51-64.81h0a46.06,46.06,0,0,0-64.81,6.52L225.7,286.17"/><path class="cls-4" d="M218.55,284.8V71.43a55.89,55.89,0,0,0-55.89-55.89h0a55.89,55.89,0,0,0-55.89,55.89V396.52Z"/><g class="cls-5"><path class="cls-6" d="M169.6,16.67a58.53,58.53,0,0,1,12.87,2.79A55.06,55.06,0,0,0,169.6,16.67Z"/><path class="cls-7" d="M178.42,324.4V72.3a14.2,14.2,0,0,0-28.4,0V352.05"/><path class="cls-7" d="M157,345.29V72.3a7.25,7.25,0,1,1,14.5,0V331.16"/><path class="cls-7" d="M192.31,310.86V72.3a28.1,28.1,0,1,0-56.19,0V365.59"/><path class="cls-7" d="M143.07,358.82V72.3a21.15,21.15,0,1,1,42.29,0V317.63"/><path class="cls-7" d="M108.33,392.66V72.3a55.89,55.89,0,0,1,55.89-55.89h0c1.81,0,3.61.09,5.38.26l-1.75-.16c-34.4-2.43-62.64,25.31-62.64,59.8V395.7"/><path class="cls-7" d="M213.16,290.56V72.3a48.94,48.94,0,1,0-97.88,0V385.89"/><path class="cls-7" d="M122.23,379.12V72.3a42,42,0,0,1,84,0v225"/><path class="cls-7" d="M199.26,304.09V72.3a35,35,0,1,0-70.09,0V372.36"/><path class="cls-7" d="M136.12,365.59V72.3a28.1,28.1,0,1,1,56.19,0V310.86"/><path class="cls-7" d="M182.47,19.46A55.91,55.91,0,0,1,220.11,72.3V283.79"/><path class="cls-7" d="M220.11,283.79V72.3a55.91,55.91,0,0,0-37.64-52.84,58.53,58.53,0,0,0-12.87-2.79c-1.77-.17-3.57-.26-5.38-.26h0A55.89,55.89,0,0,0,108.33,72.3V392.66"/><path class="cls-7" d="M115.28,385.89V72.3a48.94,48.94,0,1,1,97.88,0V290.56"/><path class="cls-8" d="M164.22,65.05A7.26,7.26,0,0,0,157,72.3v273l14.5-14.13V72.3A7.26,7.26,0,0,0,164.22,65.05Z"/></g><g class="cls-5"><path class="cls-7" d="M225.75,395.09,423.8,152.8a23.16,23.16,0,0,0-35.86-29.31L225.22,322.56"/><path class="cls-7" d="M225.29,331.53,392.37,127.11a17.43,17.43,0,0,1,27,22.06l-193.68,237"/><path class="cls-7" d="M225.62,377.15l189.31-231.6a11.7,11.7,0,1,0-18.12-14.81L225.35,340.5"/><path class="cls-9" d="M225.42,349.47,401.24,134.36a6,6,0,0,1,9.25,7.56L225.55,368.18"/><path class="cls-7" d="M225,286.69,370.21,109A46.06,46.06,0,0,1,435,102.48h0a46.06,46.06,0,0,1,6.51,64.81L226,431"/><path class="cls-7" d="M225.88,413,432.66,160a34.61,34.61,0,0,0-53.59-43.8l-154,188.39"/><path class="cls-7" d="M225.16,313.59,383.51,119.87a28.88,28.88,0,1,1,44.72,36.55L225.81,404.06"/><path class="cls-7" d="M225.94,422,437.1,163.67a40.33,40.33,0,1,0-62.46-51L225,295.66"/><path class="cls-7" d="M225.09,304.63l154-188.39A34.61,34.61,0,0,1,432.66,160L225.88,413"/><path class="cls-10" d="M409.65,133.52a6,6,0,0,0-8.41.84L225.42,349.47l.13,18.71L410.49,141.92A6,6,0,0,0,409.65,133.52Z"/><path class="cls-10" d="M409.64,133.53a6,6,0,0,0-4.16-1.31,5.88,5.88,0,0,0-3.94,1.87c-1.92,2.28-3.79,4.62-5.69,6.94l-11.34,13.91-22.68,27.83-45.4,55.63-45.5,55.54-45.42,55.6,0-.07.16,18.71-.24-.08,95.37-116.81L368.61,193l23.9-29.16,11.95-14.57,6-7.29a6,6,0,0,0-.8-8.41Zm0,0a6,6,0,0,1,.83,8.48l-5.95,7.31L392.63,163.9l-23.81,29.23-47.66,58.43-95.5,116.71-.24.29v-.37l-.12-18.72v0l0,0,45.45-55.59,45.38-55.64,45.48-55.56,22.76-27.76L395.78,141c1.91-2.31,3.78-4.64,5.71-6.93a6,6,0,0,1,4-1.88A6.05,6.05,0,0,1,409.66,133.5Z"/></g><circle class="cls-11" cx="435.05" cy="303.64" r="55.45"/><path class="cls-10" d="M411.3,346a52.5,52.5,0,0,0,61.12-4.62,52.48,52.48,0,0,1-46.72-91A52.48,52.48,0,0,0,411.3,346Z"/></g></g></svg>